<?xml version="1.0" encoding="utf-8"?>
<!-- Generator: Adobe Illustrator 27.8.1, SVG Export Plug-In . SVG Version: 6.00 Build 0)  -->
<svg version="1.1" id="Layer_1" xmlns="http://www.w3.org/2000/svg" xmlns:xlink="http://www.w3.org/1999/xlink" x="0px" y="0px"
	 viewBox="0 0 685 338" style="enable-background:new 0 0 685 338;" xml:space="preserve">
<style type="text/css">
	.st0{fill:#808080;}
</style>
<g>
	<g>
		<line class="st0" x1="386" y1="88.8" x2="386" y2="236.8"/>
		<path class="st0" d="M386,88.8c1.6,49.3,1.6,98.6,0,147.9C384.4,187.5,384.4,138.1,386,88.8L386,88.8z"/>
	</g>
	<g>
		<polygon class="st0" points="73,218.1 77.7,218.1 109.9,218.1 114.7,218.1 108.4,218.1 		"/>
		<path class="st0" d="M96,201.9L96,201.9L96,201.9C96,201.9,96,201.9,96,201.9z"/>
		<path class="st0" d="M92.3,203.7c0,0-0.1-0.1-0.1-0.1C92.2,203.6,92.3,203.6,92.3,203.7z"/>
		<path class="st0" d="M147.9,181.8c0.9,1.1,1.3,2.6,1.3,4.2c0,2.4-0.9,4.2-2.7,5.5c-1.8,1.3-4.5,1.9-8,1.9h-13.8v-27.1h13.1
			c3.3,0,5.8,0.6,7.5,1.9c1.7,1.3,2.6,3,2.6,5.1c0,1.3-0.3,2.5-0.9,3.5c-0.6,1-1.5,1.8-2.6,2.4C145.9,179.9,147.1,180.7,147.9,181.8
			z M130.9,171.1v6.4h6.1c1.5,0,2.7-0.3,3.5-0.8c0.8-0.5,1.2-1.3,1.2-2.4c0-1.1-0.4-1.8-1.2-2.4c-0.8-0.5-1.9-0.8-3.5-0.8H130.9z
			 M141.8,187.9c0.8-0.5,1.2-1.4,1.2-2.5c0-2.2-1.6-3.4-4.9-3.4h-7.2v6.7h7.2C139.7,188.7,140.9,188.5,141.8,187.9z"/>
		<path class="st0" d="M171.4,193.3l-5.2-7.5h-0.3h-5.4v7.5h-6.2v-27.1h11.6c2.4,0,4.4,0.4,6.2,1.2c1.7,0.8,3.1,1.9,4,3.4
			c0.9,1.5,1.4,3.2,1.4,5.2c0,2-0.5,3.7-1.4,5.2c-1,1.5-2.3,2.6-4.1,3.3l6,8.7H171.4z M169.8,172.6c-1-0.8-2.4-1.2-4.2-1.2h-5v9.4h5
			c1.9,0,3.3-0.4,4.2-1.2c1-0.8,1.5-2,1.5-3.5C171.2,174.5,170.8,173.4,169.8,172.6z"/>
		<path class="st0" d="M212.5,179.8h5.6v11c-1.5,1.1-3.1,2-5,2.6c-1.9,0.6-3.8,0.9-5.8,0.9c-2.8,0-5.3-0.6-7.5-1.8
			c-2.2-1.2-4-2.9-5.2-5c-1.3-2.1-1.9-4.5-1.9-7.2c0-2.7,0.6-5.1,1.9-7.2c1.3-2.1,3-3.8,5.2-5c2.2-1.2,4.8-1.8,7.6-1.8
			c2.3,0,4.5,0.4,6.4,1.2c1.9,0.8,3.5,2,4.8,3.5l-4,3.7c-1.9-2-4.2-3.1-6.9-3.1c-1.7,0-3.2,0.4-4.5,1.1c-1.3,0.7-2.4,1.7-3.1,3.1
			c-0.7,1.3-1.1,2.8-1.1,4.5c0,1.7,0.4,3.2,1.1,4.5c0.7,1.3,1.8,2.3,3.1,3.1c1.3,0.7,2.8,1.1,4.5,1.1c1.8,0,3.4-0.4,4.8-1.2V179.8z"
			/>
		<path class="st0" d="M239.5,193.4l-5.2-7.5H234h-5.4v7.5h-6.2v-27.1H234c2.4,0,4.4,0.4,6.2,1.2c1.7,0.8,3.1,1.9,4,3.4
			c0.9,1.5,1.4,3.2,1.4,5.2c0,2-0.5,3.7-1.4,5.2c-1,1.5-2.3,2.6-4.1,3.3l6,8.7H239.5z M237.9,172.7c-1-0.8-2.4-1.2-4.2-1.2h-5v9.4h5
			c1.9,0,3.3-0.4,4.2-1.2c1-0.8,1.5-2,1.5-3.5C239.4,174.7,238.9,173.5,237.9,172.7z"/>
		<path class="st0" d="M256.6,192.1c-2.2-1.2-4-2.9-5.2-5c-1.3-2.1-1.9-4.5-1.9-7.2c0-2.7,0.6-5,1.9-7.2c1.3-2.1,3-3.8,5.2-5
			c2.2-1.2,4.7-1.8,7.5-1.8s5.3,0.6,7.5,1.8c2.2,1.2,4,2.9,5.2,5c1.3,2.1,1.9,4.5,1.9,7.2c0,2.7-0.6,5-1.9,7.2c-1.3,2.1-3,3.8-5.2,5
			c-2.2,1.2-4.7,1.8-7.5,1.8S258.9,193.3,256.6,192.1z M268.4,187.5c1.3-0.7,2.3-1.8,3-3.1c0.7-1.3,1.1-2.8,1.1-4.5
			c0-1.7-0.4-3.2-1.1-4.5s-1.7-2.3-3-3.1c-1.3-0.7-2.7-1.1-4.3-1.1s-3,0.4-4.3,1.1c-1.3,0.7-2.3,1.8-3,3.1c-0.7,1.3-1.1,2.8-1.1,4.5
			c0,1.7,0.4,3.2,1.1,4.5c0.7,1.3,1.7,2.3,3,3.1c1.3,0.7,2.7,1.1,4.3,1.1S267.1,188.2,268.4,187.5z"/>
		<path class="st0" d="M287.2,190.7c-2.1-2.1-3.2-5.2-3.2-9.2v-15.2h6.2v14.9c0,4.8,2,7.3,6,7.3c1.9,0,3.4-0.6,4.4-1.8
			c1-1.2,1.5-3,1.5-5.5v-14.9h6.1v15.2c0,4-1.1,7-3.2,9.2c-2.1,2.1-5.1,3.2-8.9,3.2C292.3,193.9,289.3,192.8,287.2,190.7z"/>
		<path class="st0" d="M331.7,167.6c1.7,0.8,3.1,1.9,4,3.4c0.9,1.5,1.4,3.2,1.4,5.2c0,2-0.5,3.7-1.4,5.2c-0.9,1.5-2.3,2.6-4,3.4
			c-1.7,0.8-3.8,1.2-6.2,1.2h-5.4v7.5H314v-27.1h11.6C327.9,166.4,330,166.8,331.7,167.6z M329.5,179.7c1-0.8,1.5-2,1.5-3.5
			c0-1.5-0.5-2.7-1.5-3.5c-1-0.8-2.4-1.2-4.2-1.2h-5v9.4h5C327.1,180.9,328.5,180.5,329.5,179.7z"/>
		<path class="st0" d="M77.7,192.1v-48.9c0-1.1-0.9-2-1.9-2h-0.8c-1.1,0-1.9,0.9-1.9,2v52.4l4.7-3.1V192.1z"/>
		<path class="st0" d="M110.8,193.7l3.9,3.7v-5.7c-0.5,0.4-1,0.7-1.6,1C112.4,193.1,111.6,193.4,110.8,193.7z"/>
		<path class="st0" d="M114.7,166.9v-1.1v-22.5c0-1.1-0.9-2-1.9-2h-0.9c-1.1,0-1.9,0.9-1.9,2v21.3c1.1,0.3,2.2,0.8,3.2,1.3
			C113.7,166.2,114.2,166.5,114.7,166.9z"/>
		<path class="st0" d="M87,128.2c0-1.1-0.9-2-1.9-2h-0.8c-1.1,0-1.9,0.9-1.9,2v62.2L87,187V128.2z"/>
		<path class="st0" d="M104.8,128.2c0-1.1-0.9-2-1.9-2h-0.8c-1.1,0-1.9,0.9-1.9,2v36.2c1.5-0.4,3.1-0.6,4.7-0.6V128.2z"/>
		<path class="st0" d="M96,166.2v-52.8c0-1-0.9-1.9-2-1.9h0c-1.5,0-2.8,0.5-2.8,1.9l0,57.4C92.4,168.9,94,167.4,96,166.2z"/>
		<polygon class="st0" points="109.9,194.9 109.9,215.5 77.7,215.5 77.7,195.2 77.7,194.5 73,197.6 73,198.8 73,220.2 108.4,220.2 
			114.7,220.2 114.7,199.4 109.9,194.9 		"/>
		<path class="st0" d="M100.1,208H87v-17.6v-1.1v-0.2l-4.7,3.4v0.3v0.9v19l4.5,0H100l4.8,0l0-18c-1.7,0-3.2-0.2-4.7-0.6V208z"/>
		<path class="st0" d="M91.2,187.7l0,15.6l0,0.1l0,0.2c0,0.8,0.3,1.5,0.9,2c0,0,0,0,0,0c0,0,0.1,0.1,0.1,0.1
			c0.3,0.2,0.7,0.4,1.1,0.4c0,0,0.1,0,0.1,0c0,0,0,0,0,0c1.3,0,2.4-0.8,2.4-2l0-0.1l0-0.1v0v-11.6C94,191.1,92.4,189.6,91.2,187.7z"
			/>
		<path class="st0" d="M97.2,191.6c-2.2-1.2-4-2.9-5.2-5s-1.9-4.5-1.9-7.2c0-2.7,0.6-5,1.9-7.2s3-3.8,5.2-5c2.2-1.2,4.7-1.8,7.5-1.8
			c2.8,0,5.3,0.6,7.5,1.8c2.2,1.2,4,2.9,5.2,5c1.3,2.1,1.9,4.5,1.9,7.2c0,2.7-0.6,5-1.9,7.2c-1.3,2.1-3,3.8-5.2,5
			c-2.2,1.2-4.7,1.8-7.5,1.8C102,193.4,99.5,192.8,97.2,191.6z M109,186.9c1.3-0.7,2.3-1.8,3-3.1c0.7-1.3,1.1-2.8,1.1-4.5
			c0-1.7-0.4-3.2-1.1-4.5c-0.7-1.3-1.7-2.3-3-3.1c-1.3-0.7-2.7-1.1-4.3-1.1c-1.6,0-3,0.4-4.3,1.1c-1.3,0.7-2.3,1.8-3,3.1
			c-0.7,1.3-1.1,2.8-1.1,4.5c0,1.7,0.4,3.2,1.1,4.5c0.7,1.3,1.7,2.3,3,3.1c1.3,0.7,2.7,1.1,4.3,1.1C106.3,188,107.8,187.7,109,186.9
			z"/>
		<path class="st0" d="M90.1,185.7"/>
	</g>
	<g>
		<path class="st0" d="M588,177.1c8,0,16,0,24,0c0,1.4,0,2.9,0,4.3c-3.2,0-6.5,0-9.7,0c0,6,0,12,0,17.9c-1.5,0-3.1,0-4.6,0
			c0-6,0-12,0-17.9c-3.2,0-6.5,0-9.7,0C588,179.9,588,178.5,588,177.1z"/>
		<g>
			<path class="st0" d="M504,107.5c5-1.8,10-3.5,15-5.3c4.1,4.2,8.1,8.5,12.2,12.7c0,2.4,0,4.8,0,7.2c-3.8-3.9-7.7-7.8-11.5-11.7
				c0,22.2,0,44.4,0,66.6c2.5-2.1,5-4.1,7.5-6.2c0.2-0.1,0.3-0.3,0.5-0.3c1,0,1.9,0,2.9,0c2,0,4.1-0.1,6.1,0
				c1.4,0.8,2.8,1.8,4.2,2.7c2,1.3,3.9,2.6,5.9,3.9c7.7,5,15.4,10.1,23.1,15.1c-1.6,0.5-3.2,0.9-4.8,1.4c0,1.5,0,2.9,0,4.4
				c-5.4,2.7-10.9,5.4-16.3,8.1c0-4.2,0-8.4,0-12.6c-7.5-5.2-15.1-10.4-22.6-15.6c-6.9,5.5-13.8,11-20.7,16.5
				c-0.3,0.2-0.5,0.5-0.9,0.5c-2.2,0-4.4,0-6.6,0c2-1.7,4-3.3,6.1-5c0-13.8,0-27.6,0-41.5c0-2.6,0-5.3,0-7.9
				C504,129.6,504,118.6,504,107.5z"/>
			<path class="st0" d="M579.6,160.4c1.8,0,3.5,0,5.3,0c0,7.4,0,14.8,0,22.2c-1.8,0-3.5,0-5.3,0
				C579.6,175.2,579.6,167.8,579.6,160.4z"/>
			<path class="st0" d="M522.9,199.5c0-3.4,0-6.8,0-10.2c2.1,0,4.2,0,6.3,0c0,3.4,0,6.8,0,10.2C527.1,199.5,525,199.5,522.9,199.5z"
				/>
		</g>
		<g>
			<path class="st0" d="M530.7,135.1c5.3-1.7,10.5-3.4,15.8-5.1c3.6,3.6,7.2,7.2,10.8,10.8c0,2.7,0,5.3,0,8
				c-3.5-3.4-6.9-6.9-10.4-10.3c0,12.9,0,25.8,0,38.8c-2-1.3-3.9-2.6-5.9-3.9c-1.4-0.9-2.7-1.9-4.2-2.7c-2-0.1-4.1,0-6.1,0
				C530.7,158.7,530.6,146.9,530.7,135.1z"/>
			<path class="st0" d="M480.5,137.4c4.9-1.8,9.8-3.6,14.7-5.4c3,2.8,5.9,5.7,8.9,8.5c0,2.6,0,5.3,0,7.9c-2.7-2.7-5.5-5.4-8.3-8.2
				c0,21.3,0,42.5,0,63.8c-5.1-2.5-10.2-5.1-15.3-7.6C480.5,176.8,480.5,157.1,480.5,137.4z"/>
			<path class="st0" d="M560.4,181.9c0-2,0-4.1,0-6.1c12.2,6.6,24.4,13.3,36.6,19.9c-24.4,13.5-48.7,27-73.1,40.5
				c-24.4-13.5-48.7-27-73.1-40.5c8.5-4.7,17.1-9.3,25.6-14c0,2,0,4,0,6c-5.1,2.7-10.3,5.5-15.4,8.2c21,11.4,41.9,22.9,62.9,34.3
				c19.6-10.8,39.3-21.5,59-32.2c1.3-0.7,2.6-1.4,3.8-2.1C578,191.3,569.2,186.6,560.4,181.9z"/>
		</g>
		<g>
			<path class="st0" d="M548.8,152.5c6.5,0,13,0,19.6,0c2-0.1,3.9,0.9,5.4,2.2c0.7,0.7,1.6,1.5,1.6,2.6c0,4,0,8.1,0,12.1
				c0,1.1-0.8,2-1.6,2.8c-1.5,1.2-3.3,2.2-5.3,2.2c-6.5,0-13,0-19.6,0C548.8,167.1,548.8,159.8,548.8,152.5z M553.4,156.6
				c0,4.5,0,9.1,0,13.6c4.8,0,9.5,0,14.3,0c0.7,0,1.5,0.1,2.1-0.3c0.6-0.4,1.3-0.9,1.3-1.7c0-3.2,0-6.4,0-9.6c0-0.5-0.3-0.9-0.7-1.2
				c-0.5-0.4-1.1-0.8-1.8-0.7C563.5,156.6,558.5,156.6,553.4,156.6z"/>
		</g>
	</g>
</g>
</svg>
