<?xml version="1.0" encoding="utf-8"?>
<!-- Generator: Adobe Illustrator 27.8.1, SVG Export Plug-In . SVG Version: 6.00 Build 0)  -->
<svg version="1.1" id="Layer_1" xmlns="http://www.w3.org/2000/svg" xmlns:xlink="http://www.w3.org/1999/xlink" x="0px" y="0px"
	 viewBox="0 0 183.7 185" style="enable-background:new 0 0 183.7 185;" xml:space="preserve">
<style type="text/css">
	.st0{fill:#FFFFFF;}
	.st1{font-family:'MoorhenDemoRegular';}
	.st2{font-size:54.7011px;}
	.st3{fill:#759566;}
	.st4{fill:url(#SVGID_1_);}
</style>
<g>
	<text transform="matrix(1 0 0 1 21.3658 152.0441)" class="st0 st1 st2">JADE</text>
	<g>
		<path class="st0" d="M24.5,161h1.3v8.3h-1.3V161z M25.1,164.7h3.1c0.2,0,0.5-0.1,0.6-0.2c0.2-0.1,0.3-0.3,0.4-0.5s0.2-0.4,0.2-0.7
			c0-0.3-0.1-0.5-0.2-0.7s-0.2-0.3-0.4-0.5s-0.4-0.2-0.6-0.2h-3.1V161h3c0.5,0,1,0.1,1.4,0.3s0.7,0.5,0.9,0.8
			c0.2,0.4,0.3,0.8,0.3,1.3c0,0.5-0.1,0.9-0.3,1.3c-0.2,0.4-0.5,0.6-0.9,0.8c-0.4,0.2-0.9,0.3-1.4,0.3h-3V164.7z M27.6,165.5
			l1.3-0.3l2.3,4h-1.5L27.6,165.5z"/>
		<path class="st0" d="M38.6,161h1.3v8.3h-1.3V161z M39.2,161h5.2v1.1h-5.2V161z M39.2,164.6h4.5v1.1h-4.5V164.6z M39.2,168.2h5.2
			v1.1h-5.2V168.2z"/>
		<path class="st0" d="M53.4,169.2c-0.4-0.1-0.8-0.2-1.1-0.3c-0.3-0.2-0.7-0.3-0.9-0.6l0.8-0.9c0.3,0.3,0.7,0.5,1.1,0.6
			s0.9,0.2,1.4,0.2c0.7,0,1.2-0.1,1.5-0.3c0.4-0.2,0.5-0.5,0.5-0.9v0c0-0.3-0.1-0.5-0.2-0.7s-0.4-0.3-0.6-0.4
			c-0.3-0.1-0.6-0.2-1-0.2c0,0,0,0,0,0c0,0,0,0,0,0l-0.1,0c-0.6-0.1-1.1-0.2-1.5-0.3s-0.7-0.3-1-0.7c-0.3-0.3-0.4-0.8-0.4-1.4v0
			c0-0.5,0.1-1,0.4-1.3c0.3-0.4,0.6-0.6,1.1-0.8s1.1-0.3,1.7-0.3c0.3,0,0.6,0,1,0.1c0.3,0.1,0.6,0.2,0.9,0.3
			c0.3,0.1,0.6,0.3,0.9,0.5l-0.7,0.9c-0.3-0.2-0.7-0.4-1-0.5s-0.7-0.2-1-0.2c-0.6,0-1.1,0.1-1.4,0.3c-0.3,0.2-0.5,0.5-0.5,1v0
			c0,0.3,0.1,0.5,0.3,0.7c0.2,0.2,0.4,0.3,0.7,0.4c0.3,0.1,0.6,0.2,1.1,0.2c0,0,0,0,0,0s0,0,0,0c0,0,0,0,0.1,0c0,0,0,0,0.1,0
			c0.5,0.1,1,0.2,1.4,0.4s0.7,0.4,0.9,0.7c0.2,0.3,0.4,0.7,0.4,1.3v0c0,0.5-0.1,0.9-0.4,1.3c-0.3,0.4-0.6,0.6-1.1,0.8
			s-1.1,0.3-1.8,0.3C54.2,169.4,53.8,169.3,53.4,169.2z"/>
		<path class="st0" d="M66.7,169.3h-1.3V161h1.3V169.3z"/>
		<path class="st0" d="M74.7,161h1.3v8.3h-1.3V161z M75.5,168.2h2c0.7,0,1.2-0.2,1.6-0.5c0.4-0.3,0.6-0.8,0.6-1.3v-2.4
			c0-0.6-0.2-1-0.6-1.3c-0.4-0.3-0.9-0.5-1.6-0.5h-2V161h2c0.7,0,1.3,0.1,1.9,0.3s0.9,0.6,1.2,1c0.3,0.4,0.4,1,0.4,1.6v2.4
			c0,0.6-0.1,1.2-0.4,1.6c-0.3,0.4-0.7,0.8-1.2,1c-0.5,0.2-1.1,0.3-1.9,0.3h-2V168.2z"/>
		<path class="st0" d="M88.7,161h1.3v8.3h-1.3V161z M89.3,161h5.2v1.1h-5.2V161z M89.3,164.6h4.5v1.1h-4.5V164.6z M89.3,168.2h5.2
			v1.1h-5.2V168.2z"/>
		<path class="st0" d="M102,161h1.2l4.4,6.4l-0.1,0.1V161h1.3v8.3h-1.2l-4.4-6.3l0.1-0.1v6.5H102V161z"/>
		<path class="st0" d="M118,169c-0.5-0.3-0.8-0.6-1.1-1.1c-0.3-0.5-0.4-1-0.4-1.6V164c0-0.6,0.1-1.2,0.4-1.6
			c0.3-0.5,0.6-0.8,1.1-1.1c0.5-0.3,1-0.4,1.7-0.4c0.5,0,1,0.1,1.4,0.3c0.4,0.2,0.8,0.5,1.1,0.9c0.3,0.4,0.5,0.8,0.6,1.3h-1.3
			c-0.1-0.3-0.2-0.5-0.4-0.7c-0.2-0.2-0.4-0.4-0.7-0.5c-0.2-0.1-0.5-0.2-0.8-0.2c-0.4,0-0.7,0.1-1,0.2c-0.3,0.2-0.5,0.4-0.6,0.7
			s-0.2,0.6-0.2,1v2.3c0,0.4,0.1,0.7,0.2,1s0.4,0.5,0.6,0.7c0.3,0.2,0.6,0.2,1,0.2c0.3,0,0.5-0.1,0.8-0.2c0.2-0.1,0.5-0.3,0.6-0.5
			c0.2-0.2,0.3-0.4,0.4-0.7h1.3c-0.1,0.5-0.3,0.9-0.6,1.3c-0.3,0.4-0.7,0.7-1.1,0.9c-0.4,0.2-0.9,0.3-1.4,0.3
			C119,169.4,118.5,169.2,118,169z"/>
		<path class="st0" d="M131.5,169.3h-1.3V161h1.3V169.3z"/>
		<path class="st0" d="M141.8,161h1.1l3.3,8.3h-1.4l-2.5-6.7l-2.5,6.7h-1.4L141.8,161z M140,166.3h4.8v1.1H140V166.3z"/>
		<path class="st0" d="M153.3,161h1.3v8.3h-1.3V161z M153.9,168.2h5.2v1.1h-5.2V168.2z"/>
	</g>
	<path class="st0" d="M117.3,69.3c0-3-0.2-6-0.6-8.9c0,0,0-0.1,0-0.1c-1-6.6-3-12.8-5.6-18.2c0-0.2-0.1-0.4-0.2-0.5
		c-2.7-5.8-6-10.9-9-14.9c0-0.1-0.1-0.2-0.1-0.2c0-0.1-0.1-0.1-0.1-0.1c-4.9-6.5-9-10.3-9.1-10.4c0,0,0,0,0,0c0,0-0.1,0-0.1-0.1
		c0,0-0.1-0.1-0.1-0.1c0,0,0,0-0.1,0c0,0-0.1,0-0.1,0c-0.1,0-0.1,0-0.2,0c-0.1,0-0.1,0-0.2,0c0,0-0.1,0-0.1,0c-0.1,0-0.1,0-0.2,0
		c-0.1,0-0.1,0-0.2,0c0,0-0.1,0-0.1,0c0,0,0,0-0.1,0c0,0-0.1,0-0.1,0.1c0,0-0.1,0-0.1,0.1c0,0,0,0,0,0C91,16,86.9,19.8,82,26.3
		c-0.1,0-0.1,0.1-0.2,0.1c-0.1,0.1-0.1,0.2-0.1,0.2c-3,4-6.2,9.1-8.9,14.9l0,0c-0.1,0.2-0.2,0.4-0.3,0.6C70.1,47.6,68,53.7,67,60.3
		c0,0.1-0.1,0.2-0.1,0.3c-0.4,2.9-0.6,5.8-0.6,8.8c0,0,0,0.2,0,0.4c-0.1,0.3,0,0.6,0.1,0.9c0.3,1.7,1,5,2.5,8.6c0,0,0,0.1,0,0.1
		c0,0.1,0.1,0.3,0.2,0.4c1.1,2.7,2.7,5.5,4.9,8c0.1,0.2,0.2,0.3,0.4,0.4c1.9,2.1,4.2,3.9,7.1,5.2c0,0,0.1,0.1,0.1,0.1
		c0,0,0.1,0,0.1,0c2.7,1.2,5.9,1.9,9.6,1.9l0.4,0l0.4,0c0,0,0,0,0,0c3.7,0,6.9-0.7,9.6-1.9c0,0,0.1,0,0.1,0c0,0,0.1,0,0.1-0.1
		c2.9-1.3,5.2-3.1,7.1-5.2c0.2-0.1,0.3-0.2,0.4-0.4c2.2-2.5,3.8-5.3,4.9-8c0.1-0.1,0.2-0.2,0.2-0.4c0,0,0-0.1,0-0.1
		c1.5-3.6,2.2-6.8,2.5-8.5c0.2-0.3,0.2-0.6,0.1-0.9C117.3,69.5,117.3,69.4,117.3,69.3z M114.4,59.4l-2.8-0.3l-0.3-11
		C112.6,51.6,113.7,55.4,114.4,59.4z M78,70.2L80,58l9.5,11.7l-5.6,11.2L81.4,80L78,70.2z M78.7,78.7l-2.8-1.4l1.1-3.6L78.7,78.7z
		 M102.1,48.1l2,12.6l-5.4-5.9L102.1,48.1z M97.5,53.5L91.6,47l6.5-4.6l3.2,3.4L97.5,53.5z M93.4,34.1l4.2-3.1l3,10.9L93.4,34.1z
		 M97,41.1l-6.5,4.6l-4-4.4l5.4-5.8L97,41.1z M83,41.9L86,31l4.2,3.1L83,41.9z M85.3,42.6l3.8,4.1l-8.2,5.5l1-6L85.3,42.6z
		 M80.6,54.2l9.6-6.2l6.5,7.1L90.3,68l-9.9-12.3L80.6,54.2z M90.6,71.1l8.2,10.1l-7,2.6l-6.4-2.3L90.6,71.1z M100.5,80.6l-9.1-11.2
		l6.5-13l6.7,7.4l1,6.3l-3.4,9.8L100.5,80.6z M106.7,73.7l1.1,3.6l-2.8,1.4L106.7,73.7z M107.2,66.1l-0.3-2l0.2-0.2l-0.3-0.3
		l-1.9-11.9l4.6,8.4L107.2,66.1z M109.4,55.6l-5.6-10.2l-3.4-12.1l8.6,9.5L109.4,55.6z M100.7,28.6c1.4,2,2.9,4.2,4.3,6.5l-5.3-5.8
		L100.7,28.6z M99.4,26.9l-0.9,0.7l-2.4-4.7C97.2,24.1,98.3,25.4,99.4,26.9z M91.8,19.1l5,9.8l-5,3.7l-5-3.7L91.8,19.1z M87.5,22.9
		l-2.4,4.7l-0.8-0.7C85.4,25.4,86.5,24.1,87.5,22.9z M83,28.6l0.9,0.7l-5.2,5.8C80.1,32.8,81.5,30.6,83,28.6z M74.6,42.7l8.6-9.5
		l-3.4,12.1l-5.6,10.2L74.6,42.7z M78.8,51.7l-2.3,14.4l-2.2-6L78.8,51.7z M72.4,48.1l-0.3,11l-2.7,0.3C70,55.4,71.1,51.7,72.4,48.1
		z M69,61.6l2.1-0.3l-2.5,4.5C68.7,64.4,68.8,63,69,61.6z M69.3,73.7l3.3,3.6l-2,0.5C70.1,76.4,69.6,75,69.3,73.7z M71.5,79.8
		l2.1-0.6l0.3,4.8C72.9,82.7,72.1,81.2,71.5,79.8z M74.1,75.8L68.7,70l4.1-7.4l2.9,7.8L74.1,75.8z M75.8,79.6l4,2l2.7,4.7l-6.4-0.1
		L75.8,79.6z M81.6,91c-1.4-0.7-2.7-1.6-3.9-2.6l5,0.1L81.6,91z M88.6,84.9l-3.8,1.3l-1.9-3.3L88.6,84.9z M83.6,91.9l1.2-2.6
		l4.2,3.8C87,92.9,85.2,92.5,83.6,91.9z M91.8,92.8l-5.4-4.9l5.4-1.8l5.4,1.8L91.8,92.8z M94.7,93.1l4.2-3.8l1.1,2.6
		C98.5,92.4,96.7,92.9,94.7,93.1z M98.8,86.2l-3.8-1.3l5.7-2.1L98.8,86.2z M102,91l-1.1-2.4l4.9-0.1C104.7,89.4,103.4,90.2,102,91z
		 M107.5,86.2l-6.4,0.1l2.7-4.7l4-2L107.5,86.2z M109.8,83.9l0.2-4.6l2.1,0.6C111.5,81.2,110.7,82.5,109.8,83.9z M112.9,77.8
		l-1.9-0.5l3.2-3.5C113.9,75,113.5,76.4,112.9,77.8z M109.5,75.8l-1.6-5.5l2.9-7.8l4.1,7.4L109.5,75.8z M112.5,61.3l2.2,0.3
		c0.2,1.4,0.3,2.8,0.4,4.3L112.5,61.3z"/>
</g>
</svg>
